<?xml version="1.0" encoding="UTF-8"?>
<svg width="191.02mm" height="86.621mm" version="1.1" viewBox="0 0 191.02 86.621" xmlns="http://www.w3.org/2000/svg" xmlns:xlink="http://www.w3.org/1999/xlink">
<defs>
<linearGradient id="a">
<stop stop-color="#0a4398" offset="0"/>
<stop stop-color="#7300b1" offset="1"/>
</linearGradient>
<radialGradient id="g" cx="162.31" cy="113.65" r="123.15" gradientTransform="matrix(1.3742 0 0 .72963 -60.735 30.727)" gradientUnits="userSpaceOnUse" xlink:href="#a"/>
<radialGradient id="d" cx="163.33" cy="144.51" r="115.2" gradientTransform="matrix(1 0 0 2.0151 0 -146.69)" gradientUnits="userSpaceOnUse" xlink:href="#a"/>
<radialGradient id="c" cx="162.36" cy="73.089" r="123.11" gradientTransform="matrix(1 0 0 .47385 -.00036222 38.456)" gradientUnits="userSpaceOnUse" xlink:href="#a"/>
<radialGradient id="f" cx="104.34" cy="84.953" r="94.071" gradientTransform="matrix(1 0 0 .010826 1.0109 140.64)" gradientUnits="userSpaceOnUse" xlink:href="#a"/>
<radialGradient id="b" cx="163.33" cy="144.51" r="115.2" gradientTransform="matrix(1 0 0 .1285 0 125.94)" gradientUnits="userSpaceOnUse" xlink:href="#a"/>
<radialGradient id="e" cx="162.31" cy="113.65" r="123.15" gradientTransform="matrix(.95809 -.28645 .23099 .7726 -19.45 72.338)" gradientUnits="userSpaceOnUse" xlink:href="#a"/>
</defs>
<g transform="translate(-10.777 -57.466)">
<g opacity=".18165" stroke="#000">
<g transform="matrix(.76402 0 0 .76402 -16.809 19.393)">
<path d="m147.35 51.469-1.7529 20.369 6.0218-12.986 10.955 5.2116 10.954-5.2116 6.0218 12.986-1.7524-20.369-15.245 11.07z" stroke-width=".3463px"/>
<path d="m163.8 81.18c6.3637 6.1432 12.729 8.8579 20.868 10.885 13.622 3.3925 73.019 2.5675 100.81 2.5274l-0.0149-2.8652c-27.967 0.0404-87.08 0.80162-100.1-2.4414-7.8037-1.9436-13.688-4.3732-19.651-10.171m-4.3484-4.4544c-3.0065-3.4546-4.9017-6.6113-7.214-11.722h1.7e-4l-1.8755-0.93047-0.73387 2.1121c2.417 5.3425 4.4863 8.7317 7.7012 12.4" color="#000000" stroke-linejoin="round" stroke-width="1.3089" style="-inkscape-stroke:none"/>
<path d="m170.58 62.938c-7.2591 16.045-18.192 23.105-31.213 26.348-12.609 3.1404-55.544 2.526-78.333 2.4472-0.74446-3e-3 -20.884-5e-3 -21.768-6e-3l-0.01452 2.8652c27.789 0.0402 87.186 0.86515 100.81-2.5274 13.622-3.3925 25.55-11.189 33.131-27.945l-0.72079-2.1348z" color="#000000" stroke-width="1.3089" style="-inkscape-stroke:none"/>
</g>
<g transform="matrix(.76402 0 0 .76402 -16.809 19.357)" stroke-width="1.3089">
<path d="m39.162 97.57 0.08193 32.166h10.607l-0.02855-19.769 5.3875 5.9476 5.917-5.9476-0.02855 19.769h10.607l-0.04443-32.166h-10.436l-6.0145 6.8745-5.4853-6.8745z"/>
<path d="m80.014 97.57c-4.1965 0.1886-6.8306 8.4103-6.811 13.141-0.01648 1.5547-0.04695 2.505 0.11889 4.6235 0.19276 3.7266 0.85561 10.246 3.3285 13.056 0.67719 0.94675 1.4632 1.4674 2.3668 1.3245h17.107c0.90306 0.14289 1.6888-0.37711 2.3657-1.3229 2.474-2.8086 3.1367-9.3299 3.3295-13.057 0.0678-1.6701 0.11879-3.1375 0.11879-4.6235 0.0197-4.7305-2.6145-12.952-6.811-13.141h-0.03617c-5.0136 2.65e-4 -10.027-1.77e-4 -15.041 0zm11.655 17.046c-0.05545 2.1341-0.24598 5.8684-0.95756 7.4765-0.19471 0.54154-0.42083 0.83876-0.68058 0.75706h-4.9206c-0.25989 0.0819-0.4858-0.21601-0.68058-0.75809-0.71127-1.6086-0.90212-5.3418-0.95756-7.4755-0.23819-11.845 8.4227-12.696 8.1969 0z"/>
<path d="m137.33 97.57v32.166h25.468v-6.8864h-14.861v-6.9346h11.728v-5.9476h-11.661v-5.5228h14.798v-6.8744z"/>
<path d="m164.57 97.57v32.166h10.607v-13.821l8.1187 13.821h10.607v-32.166h-11.679v12.397l-7.5826-12.397z"/>
<path d="m195.19 97.57v6.8745h7.7047v25.291h10.607v-25.291h7.7047v-6.8745z"/>
<path d="m241.47 97.558c-0.22194 6.2018-0.0629 11.632-0.28133 17.058-0.0555 2.1341-0.24598 5.8684-0.95757 7.4765-0.19471 0.54154-0.42083 0.83876-0.68058 0.75706h-4.9206c-0.25988 0.0819-0.48579-0.21601-0.68058-0.75809-0.71127-1.6086-0.90211-5.3418-0.95756-7.4755-0.10534-5.6224-0.18376-11.427-0.28133-17.058l-9.9878 0.012c0.23431 6.0059-0.33207 12.146 0.11879 17.764 0.19276 3.7266 0.85561 10.246 3.3285 13.056 0.67719 0.94675 1.4632 1.4674 2.3668 1.3245h17.107c0.90306 0.14289 1.6888-0.37711 2.3657-1.3229 2.474-2.8086 3.1367-9.3299 3.3295-13.057 0.0717-0.88176 0.11056-1.6631 0.11679-2.2779 5.3e-4 -2.6e-4 7.5e-4 -5e-4 2e-3 -1e-3 -8e-5 -5.3423-1e-5 -13.771 0-15.485z"/>
<path d="m103.2 97.57 0.0819 32.166h10.607l-0.0286-19.769 5.3875 5.9476 5.917-5.9476-0.0286 19.769h10.607l-0.0444-32.166h-10.436l-6.0145 6.8745-5.4853-6.8745z"/>
<path d="m252.92 97.57 0.0819 32.166h10.607l-0.0286-19.769 5.3875 5.9476 5.917-5.9476-0.0286 19.769h10.607l-0.0444-32.166h-10.436l-6.0145 6.8745-5.4853-6.8745z"/>
</g>
<g transform="matrix(.81656 0 0 .69069 -26.39 29.991)" stroke-width="1.6844" aria-label="GAME STUDIO">
<g transform="scale(.9197 1.0873)" stroke="#000" aria-label="GAME STUDIO">
<path d="m73.454 144.41c-0.43626 0.29084-0.96947 0.56956-1.5996 0.83617-1.985 0.75089-4.2603 1.252-6.2167 1.2724-2.0359 0-3.8779-0.3272-5.526-0.98159-1.6239-0.67863-3.0175-1.5996-4.1808-2.763-1.1634-1.1876-2.0601-2.557-2.6903-4.1081-0.60592-1.5754-0.90888-3.272-0.90888-5.0897 0-1.9632 0.33931-3.7688 1.0179-5.4169 0.70286-1.6481 1.6602-3.066 2.8721-4.2536 1.2118-1.2118 2.6176-2.145 4.2172-2.7993 1.5996-0.65439 3.2962-0.98159 5.0897-0.98159 1.3573 0 2.6297 0.16966 3.8173 0.50898 1.2118 0.33931 2.3025 0.79981 3.272 1.3815l-0.65439 1.5996c-0.55744-0.33931-1.1876-0.63015-1.8905-0.87252-0.70286-0.2666-1.43-0.47261-2.1813-0.61804-0.7271-0.14542-1.4542-0.21813-2.1813-0.21813-1.6481 0-3.175 0.29084-4.5807 0.87253-1.4057 0.58168-2.6297 1.3936-3.6719 2.4358s-1.8541 2.2661-2.4358 3.6719c-0.58168 1.4057-0.87252 2.9326-0.87252 4.5808 0 1.5996 0.2666 3.0902 0.79981 4.4717 0.55744 1.3573 1.333 2.557 2.3267 3.5992 1.0179 1.0179 2.2298 1.8178 3.6355 2.3994 1.4057 0.55745 2.969 0.83617 4.6898 0.83617 1.0179 0 2.0844-0.12118 3.1992-0.36355 1.1149-0.24237 2.0722-0.5938 2.8721-1.0543v-7.162h-5.8168v-1.7087h7.5982z" stroke-width=".48422"/>
<path transform="matrix(.35231 0 0 .35231 38.927 36.783)" d="m143.71 234.19-30.957 76.465h5.0566l9.707-24.25h32.342l9.5449 24.25h5.6758l-30.957-76.465zm0.11133 11.479 14.168 35.988h-28.572z" stroke-width="1.3744"/>
<path d="m106.57 146.23v-26.394h0.0363l12.343 16.605 12.306-16.605h0.0363v26.394h-1.745l0.14542-21.413-10.761 15.16h-0.0727l-10.834-15.16 0.29084 21.413z" stroke-width=".48422"/>
<path d="m139.51 120.42h15.924v1.7087h-14.142v10.252h12.724v1.7087h-12.724v10.434h14.651v1.7087h-16.432z" stroke-width=".48422"/>
<path d="m186.81 123.32q-1.127-0.54532-2.763-1.0179t-3.272-0.47262q-2.5449 0-4.0718 1.2724-1.5269 1.2724-1.5269 3.1992 0 1.4542 0.87252 2.4358 0.87253 0.94524 2.2904 1.636 1.4178 0.65439 3.0175 1.2724 1.2724 0.47262 2.5085 1.0543 1.2724 0.58168 2.2904 1.4178 1.0179 0.83616 1.5996 2.0722 0.61804 1.2361 0.61804 3.0538 0 2.145-1.0179 3.8173-1.0179 1.636-2.8357 2.5449-1.8178 0.90888-4.2172 0.90888-1.9268 0-3.5264-0.47262-1.5633-0.47262-2.763-1.0906-1.1634-0.6544-1.8541-1.0907l0.83616-1.4542q0.79982 0.58168 1.9268 1.1634 1.1634 0.58168 2.5085 0.98159t2.6903 0.39991q1.5633 0 3.0175-0.61804 1.4906-0.61804 2.4358-1.8541 0.98159-1.2724 0.98159-3.1992 0-1.8541-0.90888-2.9811-0.90888-1.1634-2.3267-1.8905t-3.0175-1.3088q-1.2361-0.47261-2.4722-0.98158-1.2361-0.54533-2.254-1.2724-1.018-0.76346-1.636-1.8178-0.58168-1.0543-0.58168-2.5448 0-1.8541 0.94523-3.2356 0.94523-1.3815 2.5448-2.145 1.636-0.79981 3.7082-0.83617 1.8178 0 3.6719 0.47262 1.8905 0.47262 3.272 1.1997z" stroke-width=".48422"/>
<path d="m192.59 120.42h16.905v1.7087h-7.5982v24.103h-1.7814v-24.103h-7.5255z" stroke-width=".48422"/>
<path d="m217.27 137.5q0 2.254 0.90888 3.89 0.94523 1.636 2.5449 2.5448 1.5996 0.87253 3.6355 0.87253 2.0722 0 3.6719-0.87253 1.636-0.90887 2.5449-2.5448 0.94523-1.636 0.94523-3.89v-17.087h1.745v17.196q0 2.7993-1.1997 4.7989-1.1634 1.9995-3.1992 3.0538-1.9995 1.0543-4.508 1.0543-2.5085 0-4.5444-1.0543-1.9995-1.0543-3.1629-3.0538-1.1634-1.9995-1.1634-4.7989v-17.196h1.7814z" stroke-width=".48422"/>
<path d="m241.34 146.23v-25.812h6.3621q3.7446 0 6.3622 1.1997 2.6539 1.1634 4.2899 3.0902t2.3994 4.2172q0.76346 2.2904 0.76346 4.5444 0 2.9448-1.0179 5.3078-1.0179 2.3267-2.7993 3.9991-1.745 1.6723-3.9991 2.5812-2.254 0.87253-4.7625 0.87253zm1.7814-1.7087h5.3442q2.3267 0 4.3626-0.76346 2.0359-0.76346 3.5628-2.2177 1.5633-1.4542 2.4358-3.4901 0.87253-2.0722 0.87253-4.6898 0-2.2177-0.76346-4.2172-0.7271-2.0359-2.2177-3.5992t-3.6719-2.4721q-2.1813-0.90888-5.0897-0.90888h-4.8352z" stroke-width=".48422"/>
<path d="m268.1 120.42h1.7814v25.812h-1.7814z" stroke-width=".48422"/>
<path d="m276.46 133.36q0-2.7266 1.0179-5.0897 1.018-2.3994 2.8357-4.2172 1.8178-1.8541 4.1808-2.872 2.3994-1.0543 5.1261-1.0543t5.1261 1.0543q2.3994 1.0179 4.2172 2.872 1.8178 1.8178 2.8357 4.2172 1.0543 2.3631 1.0543 5.0897t-1.0543 5.1261q-1.018 2.3631-2.8357 4.1808-1.8178 1.8178-4.2172 2.8357-2.3994 1.018-5.1261 1.018t-5.1261-0.98159q-2.3631-0.98159-4.1808-2.763-1.8178-1.7814-2.8357-4.1808-1.0179-2.3994-1.0179-5.2351zm1.8178 0.0364q0 2.3631 0.87252 4.4353t2.4358 3.6355 3.5992 2.4721q2.0722 0.87253 4.399 0.87253 2.3994 0 4.4717-0.87253 2.0722-0.90887 3.6355-2.4721t2.4358-3.6355q0.90888-2.0722 0.90888-4.4717 0-2.3631-0.90888-4.4353-0.87252-2.1086-2.4358-3.6719-1.5633-1.5996-3.6355-2.5085t-4.4353-0.90888q-2.3994 0-4.4717 0.94524-2.0722 0.90887-3.6355 2.5085-1.5269 1.5996-2.3994 3.7082-0.83616 2.0722-0.83616 4.399z" stroke-width=".48422"/>
</g>
</g>
<path d="m13.111 141.55v2.0369h188.14v-2.0369z" color="#000000" style="-inkscape-stroke:none"/>
</g>
<g transform="matrix(.76402 0 0 .76402 -18.642 18.387)" fill="url(#c)" stroke="url(#c)">
<path d="m147.35 51.469-1.7529 20.369 6.0218-12.986 10.955 5.2116 10.954-5.2116 6.0218 12.986-1.7524-20.369-15.245 11.07z" stroke-width=".3463px"/>
<path d="m163.8 81.18c6.3637 6.1432 12.729 8.8579 20.868 10.885 13.622 3.3925 73.019 2.5675 100.81 2.5274l-0.0149-2.8652c-27.967 0.0404-87.08 0.80162-100.1-2.4414-7.8037-1.9436-13.688-4.3732-19.651-10.171m-4.3484-4.4544c-3.0065-3.4546-4.9017-6.6113-7.214-11.722h1.7e-4l-1.8755-0.93047-0.73387 2.1121c2.417 5.3425 4.4863 8.7317 7.7012 12.4" color="#000000" stroke-linejoin="round" stroke-width="1.3089" style="-inkscape-stroke:none"/>
<path d="m170.58 62.938c-7.2591 16.045-18.192 23.105-31.213 26.348-12.609 3.1404-55.544 2.526-78.333 2.4472-0.74446-3e-3 -20.884-5e-3 -21.768-6e-3l-0.01452 2.8652c27.789 0.0402 87.186 0.86515 100.81-2.5274 13.622-3.3925 25.55-11.189 33.131-27.945l-0.72079-2.1348z" color="#000000" stroke-width="1.3089" style="-inkscape-stroke:none"/>
</g>
<g transform="matrix(.76402 0 0 .76402 -18.642 18.351)" fill="url(#g)" stroke="url(#e)" stroke-width="1.3089">
<path d="m39.162 97.57 0.08193 32.166h10.607l-0.02855-19.769 5.3875 5.9476 5.917-5.9476-0.02855 19.769h10.607l-0.04443-32.166h-10.436l-6.0145 6.8745-5.4853-6.8745z"/>
<path d="m80.014 97.57c-4.1965 0.1886-6.8306 8.4103-6.811 13.141-0.01648 1.5547-0.04695 2.505 0.11889 4.6235 0.19276 3.7266 0.85561 10.246 3.3285 13.056 0.67719 0.94675 1.4632 1.4674 2.3668 1.3245h17.107c0.90306 0.14289 1.6888-0.37711 2.3657-1.3229 2.474-2.8086 3.1367-9.3299 3.3295-13.057 0.0678-1.6701 0.11879-3.1375 0.11879-4.6235 0.0197-4.7305-2.6145-12.952-6.811-13.141h-0.03617c-5.0136 2.65e-4 -10.027-1.77e-4 -15.041 0zm11.655 17.046c-0.05545 2.1341-0.24598 5.8684-0.95756 7.4765-0.19471 0.54154-0.42083 0.83876-0.68058 0.75706h-4.9206c-0.25989 0.0819-0.4858-0.21601-0.68058-0.75809-0.71127-1.6086-0.90212-5.3418-0.95756-7.4755-0.23819-11.845 8.4227-12.696 8.1969 0z"/>
<path d="m137.33 97.57v32.166h25.468v-6.8864h-14.861v-6.9346h11.728v-5.9476h-11.661v-5.5228h14.798v-6.8744z"/>
<path d="m164.57 97.57v32.166h10.607v-13.821l8.1187 13.821h10.607v-32.166h-11.679v12.397l-7.5826-12.397z"/>
<path d="m195.19 97.57v6.8745h7.7047v25.291h10.607v-25.291h7.7047v-6.8745z"/>
<path d="m241.47 97.558c-0.22194 6.2018-0.0629 11.632-0.28133 17.058-0.0555 2.1341-0.24598 5.8684-0.95757 7.4765-0.19471 0.54154-0.42083 0.83876-0.68058 0.75706h-4.9206c-0.25988 0.0819-0.48579-0.21601-0.68058-0.75809-0.71127-1.6086-0.90211-5.3418-0.95756-7.4755-0.10534-5.6224-0.18376-11.427-0.28133-17.058l-9.9878 0.012c0.23431 6.0059-0.33207 12.146 0.11879 17.764 0.19276 3.7266 0.85561 10.246 3.3285 13.056 0.67719 0.94675 1.4632 1.4674 2.3668 1.3245h17.107c0.90306 0.14289 1.6888-0.37711 2.3657-1.3229 2.474-2.8086 3.1367-9.3299 3.3295-13.057 0.0717-0.88176 0.11056-1.6631 0.11679-2.2779 5.3e-4 -2.6e-4 7.5e-4 -5e-4 2e-3 -1e-3 -8e-5 -5.3423-1e-5 -13.771 0-15.485z"/>
<path d="m103.2 97.57 0.0819 32.166h10.607l-0.0286-19.769 5.3875 5.9476 5.917-5.9476-0.0286 19.769h10.607l-0.0444-32.166h-10.436l-6.0145 6.8745-5.4853-6.8745z"/>
<path d="m252.92 97.57 0.0819 32.166h10.607l-0.0286-19.769 5.3875 5.9476 5.917-5.9476-0.0286 19.769h10.607l-0.0444-32.166h-10.436l-6.0145 6.8745-5.4853-6.8745z"/>
</g>
<g transform="matrix(.81656 0 0 .69069 -28.223 28.985)" fill="url(#d)" stroke="url(#b)" stroke-width="1.6844" aria-label="GAME STUDIO">
<g transform="scale(.9197 1.0873)" fill="url(#d)" stroke="url(#b)" aria-label="GAME STUDIO">
<path d="m73.454 144.41c-0.43626 0.29084-0.96947 0.56956-1.5996 0.83617-1.985 0.75089-4.2603 1.252-6.2167 1.2724-2.0359 0-3.8779-0.3272-5.526-0.98159-1.6239-0.67863-3.0175-1.5996-4.1808-2.763-1.1634-1.1876-2.0601-2.557-2.6903-4.1081-0.60592-1.5754-0.90888-3.272-0.90888-5.0897 0-1.9632 0.33931-3.7688 1.0179-5.4169 0.70286-1.6481 1.6602-3.066 2.8721-4.2536 1.2118-1.2118 2.6176-2.145 4.2172-2.7993 1.5996-0.65439 3.2962-0.98159 5.0897-0.98159 1.3573 0 2.6297 0.16966 3.8173 0.50898 1.2118 0.33931 2.3025 0.79981 3.272 1.3815l-0.65439 1.5996c-0.55744-0.33931-1.1876-0.63015-1.8905-0.87252-0.70286-0.2666-1.43-0.47261-2.1813-0.61804-0.7271-0.14542-1.4542-0.21813-2.1813-0.21813-1.6481 0-3.175 0.29084-4.5807 0.87253-1.4057 0.58168-2.6297 1.3936-3.6719 2.4358s-1.8541 2.2661-2.4358 3.6719c-0.58168 1.4057-0.87252 2.9326-0.87252 4.5808 0 1.5996 0.2666 3.0902 0.79981 4.4717 0.55744 1.3573 1.333 2.557 2.3267 3.5992 1.0179 1.0179 2.2298 1.8178 3.6355 2.3994 1.4057 0.55745 2.969 0.83617 4.6898 0.83617 1.0179 0 2.0844-0.12118 3.1992-0.36355 1.1149-0.24237 2.0722-0.5938 2.8721-1.0543v-7.162h-5.8168v-1.7087h7.5982z" stroke-width=".48422"/>
<path transform="matrix(.35231 0 0 .35231 38.927 36.783)" d="m143.71 234.19-30.957 76.465h5.0566l9.707-24.25h32.342l9.5449 24.25h5.6758l-30.957-76.465zm0.11133 11.479 14.168 35.988h-28.572z" stroke-width="1.3744"/>
<path d="m106.57 146.23v-26.394h0.0363l12.343 16.605 12.306-16.605h0.0363v26.394h-1.745l0.14542-21.413-10.761 15.16h-0.0727l-10.834-15.16 0.29084 21.413z" stroke-width=".48422"/>
<path d="m139.51 120.42h15.924v1.7087h-14.142v10.252h12.724v1.7087h-12.724v10.434h14.651v1.7087h-16.432z" stroke-width=".48422"/>
<path d="m186.81 123.32q-1.127-0.54532-2.763-1.0179t-3.272-0.47262q-2.5449 0-4.0718 1.2724-1.5269 1.2724-1.5269 3.1992 0 1.4542 0.87252 2.4358 0.87253 0.94524 2.2904 1.636 1.4178 0.65439 3.0175 1.2724 1.2724 0.47262 2.5085 1.0543 1.2724 0.58168 2.2904 1.4178 1.0179 0.83616 1.5996 2.0722 0.61804 1.2361 0.61804 3.0538 0 2.145-1.0179 3.8173-1.0179 1.636-2.8357 2.5449-1.8178 0.90888-4.2172 0.90888-1.9268 0-3.5264-0.47262-1.5633-0.47262-2.763-1.0906-1.1634-0.6544-1.8541-1.0907l0.83616-1.4542q0.79982 0.58168 1.9268 1.1634 1.1634 0.58168 2.5085 0.98159t2.6903 0.39991q1.5633 0 3.0175-0.61804 1.4906-0.61804 2.4358-1.8541 0.98159-1.2724 0.98159-3.1992 0-1.8541-0.90888-2.9811-0.90888-1.1634-2.3267-1.8905t-3.0175-1.3088q-1.2361-0.47261-2.4722-0.98158-1.2361-0.54533-2.254-1.2724-1.018-0.76346-1.636-1.8178-0.58168-1.0543-0.58168-2.5448 0-1.8541 0.94523-3.2356 0.94523-1.3815 2.5448-2.145 1.636-0.79981 3.7082-0.83617 1.8178 0 3.6719 0.47262 1.8905 0.47262 3.272 1.1997z" stroke-width=".48422"/>
<path d="m192.59 120.42h16.905v1.7087h-7.5982v24.103h-1.7814v-24.103h-7.5255z" stroke-width=".48422"/>
<path d="m217.27 137.5q0 2.254 0.90888 3.89 0.94523 1.636 2.5449 2.5448 1.5996 0.87253 3.6355 0.87253 2.0722 0 3.6719-0.87253 1.636-0.90887 2.5449-2.5448 0.94523-1.636 0.94523-3.89v-17.087h1.745v17.196q0 2.7993-1.1997 4.7989-1.1634 1.9995-3.1992 3.0538-1.9995 1.0543-4.508 1.0543-2.5085 0-4.5444-1.0543-1.9995-1.0543-3.1629-3.0538-1.1634-1.9995-1.1634-4.7989v-17.196h1.7814z" stroke-width=".48422"/>
<path d="m241.34 146.23v-25.812h6.3621q3.7446 0 6.3622 1.1997 2.6539 1.1634 4.2899 3.0902t2.3994 4.2172q0.76346 2.2904 0.76346 4.5444 0 2.9448-1.0179 5.3078-1.0179 2.3267-2.7993 3.9991-1.745 1.6723-3.9991 2.5812-2.254 0.87253-4.7625 0.87253zm1.7814-1.7087h5.3442q2.3267 0 4.3626-0.76346 2.0359-0.76346 3.5628-2.2177 1.5633-1.4542 2.4358-3.4901 0.87253-2.0722 0.87253-4.6898 0-2.2177-0.76346-4.2172-0.7271-2.0359-2.2177-3.5992t-3.6719-2.4721q-2.1813-0.90888-5.0897-0.90888h-4.8352z" stroke-width=".48422"/>
<path d="m268.1 120.42h1.7814v25.812h-1.7814z" stroke-width=".48422"/>
<path d="m276.46 133.36q0-2.7266 1.0179-5.0897 1.018-2.3994 2.8357-4.2172 1.8178-1.8541 4.1808-2.872 2.3994-1.0543 5.1261-1.0543t5.1261 1.0543q2.3994 1.0179 4.2172 2.872 1.8178 1.8178 2.8357 4.2172 1.0543 2.3631 1.0543 5.0897t-1.0543 5.1261q-1.018 2.3631-2.8357 4.1808-1.8178 1.8178-4.2172 2.8357-2.3994 1.018-5.1261 1.018t-5.1261-0.98159q-2.3631-0.98159-4.1808-2.763-1.8178-1.7814-2.8357-4.1808-1.0179-2.3994-1.0179-5.2351zm1.8178 0.0364q0 2.3631 0.87252 4.4353t2.4358 3.6355 3.5992 2.4721q2.0722 0.87253 4.399 0.87253 2.3994 0 4.4717-0.87253 2.0722-0.90887 3.6355-2.4721t2.4358-3.6355q0.90888-2.0722 0.90888-4.4717 0-2.3631-0.90888-4.4353-0.87252-2.1086-2.4358-3.6719-1.5633-1.5996-3.6355-2.5085t-4.4353-0.90888q-2.3994 0-4.4717 0.94524-2.0722 0.90887-3.6355 2.5085-1.5269 1.5996-2.3994 3.7082-0.83616 2.0722-0.83616 4.399z" stroke-width=".48422"/>
</g>
</g>
<path d="m11.278 140.54v2.0369h188.14v-2.0369z" color="#000000" fill="url(#f)" style="-inkscape-stroke:none"/>
</g>
</svg>
